# xmcd
#
# Track frame offsets:
#	150
#	18026
#	39924
#	54090
#	71399
#	87841
#	103347
#	124301
#	146227
#	168019
#	182668
#
# Disc length: 2703 seconds
#
# Revision: 0
# Processed by: cddbd v1.5.2PL0 Copyright (c) Steve Scherf et al.
# Submitted via: EasyCDDAExtractor 16.0.8.1
#
DISCID=870a8d0b
DTITLE=Jill Johnson - For You I'll Wait
DYEAR=2016
DGENRE=Country
TTITLE0=I Will Never Let You Know
TTITLE1=It Don't Change A Thing
TTITLE2=Again
TTITLE3=When It Pours It Rains
TTITLE4=Gotta Love Me More
TTITLE5=Love Is Good At Breaking Hearts
TTITLE6=Could You Stay The Night
TTITLE7=Till You're Gone
TTITLE8=For You I'll Wait
TTITLE9=Given Up
TTITLE10=The Night I Cry
EXTD=
EXTT0=
EXTT1=
EXTT2=
EXTT3=
EXTT4=
EXTT5=
EXTT6=
EXTT7=
EXTT8=
EXTT9=
EXTT10=
PLAYORDER=
